<?xml version="1.0" encoding="iso-8859-1"?>
<!-- Generator: Adobe Illustrator 18.0.0, SVG Export Plug-In . SVG Version: 6.00 Build 0)  -->
<!DOCTYPE svg PUBLIC "-//W3C//DTD SVG 1.1//EN" "http://www.w3.org/Graphics/SVG/1.1/DTD/svg11.dtd">
<svg version="1.1" id="Capa_1" xmlns="http://www.w3.org/2000/svg" xmlns:xlink="http://www.w3.org/1999/xlink" x="0px" y="0px"
	 viewBox="0 0 58 58" style="enable-background:new 0 0 58 58;" xml:space="preserve">
<g>
	<path style="fill:#1081E0;" d="M39.767,25.913c-0.354,0-0.696-0.188-0.878-0.519c-2.795-5.097-8.115-8.679-13.883-9.349
		c-0.549-0.063-0.941-0.56-0.878-1.108c0.063-0.548,0.558-0.942,1.108-0.878c6.401,0.743,12.304,4.718,15.406,10.373
		c0.266,0.484,0.088,1.092-0.396,1.358C40.094,25.873,39.929,25.913,39.767,25.913z"/>
	<path style="fill:#A485BE;" d="M0,58l4.042-12.125c-2.05-3.45-3.231-7.476-3.231-11.78C0.81,21.34,11.15,11,23.905,11
		S47,21.34,47,34.095S36.66,57.19,23.905,57.19c-3.881,0-7.535-0.961-10.745-2.653L0,58z"/>
	<path style="fill:#47363D;" d="M23.905,11C36.66,11,47,21.34,47,34.095c0,3.378-0.731,6.583-2.034,9.475L58,47l-4.042-12.125
		c2.05-3.45,3.231-7.476,3.231-11.78C57.19,10.34,46.85,0,34.095,0c-9.426,0-17.528,5.65-21.118,13.746
		C16.231,11.995,19.951,11,23.905,11z"/>
</g>
<g>
</g>
<g>
</g>
<g>
</g>
<g>
</g>
<g>
</g>
<g>
</g>
<g>
</g>
<g>
</g>
<g>
</g>
<g>
</g>
<g>
</g>
<g>
</g>
<g>
</g>
<g>
</g>
<g>
</g>
</svg>
