<svg xmlns="http://www.w3.org/2000/svg" width="32" height="32" viewBox="0 0 32 32"><defs><mask id="a0p1b" width="2" height="2" x="-1" y="-1"><path fill="#fff" d="M10 10h12v12H10z"/><path d="M16 10a6 6 0 1 1 0 12 6 6 0 0 1 0-12z"/></mask><filter id="a0p1a" width="60" height="60" x="-14" y="-14" filterUnits="userSpaceOnUse"><feOffset in="SourceGraphic" result="FeOffset1039Out"/><feGaussianBlur in="FeOffset1039Out" result="FeGaussianBlur1040Out" stdDeviation="5.6 5.6"/></filter></defs><g><g><g filter="url(#a0p1a)"><path fill="none" d="M16 10a6 6 0 1 1 0 12 6 6 0 0 1 0-12z" mask="url(&quot;#a0p1b&quot;)"/><path fill="#44b6ff" fill-opacity=".5" d="M16 10a6 6 0 1 1 0 12 6 6 0 0 1 0-12z"/></g><g filter="url(#a0p1a)"><path fill="none" d="M16 10a6 6 0 1 1 0 12 6 6 0 0 1 0-12z" mask="url(&quot;#a0p1b&quot;)"/><path fill="#44b6ff" fill-opacity=".5" d="M16 10a6 6 0 1 1 0 12 6 6 0 0 1 0-12z"/></g><path fill="#44b6ff" d="M16 10a6 6 0 1 1 0 12 6 6 0 0 1 0-12z"/></g></g></svg>